<svg xmlns="http://www.w3.org/2000/svg" width="101.575" height="112.921" viewBox="0 0 101.575 112.921">
  <g id="Group_46836" data-name="Group 46836" transform="translate(66.535 -1170.057)">
    <rect id="Rectangle_33" data-name="Rectangle 33" width="3.819" height="4.03" transform="translate(0.878 1241.981)" fill="#fff"/>
    <path id="Path_67" data-name="Path 67" d="M323.095,136.062l-5.973,5.973a3.2,3.2,0,0,0,0,4.516l11.92,11.92a3.2,3.2,0,0,0,4.516,0l5.973-5.973a3.2,3.2,0,0,0,0-4.516l-11.92-11.92a3.2,3.2,0,0,0-4.516,0m-4.945,7,5.973-5.973a1.742,1.742,0,0,1,2.462,0l1.781,1.781a16.041,16.041,0,0,0-8.434,8.434l-1.782-1.782a1.742,1.742,0,0,1,0-2.461Zm9.882,8.749-2.823-2.823a1.424,1.424,0,0,1,0-2.013l2.827-2.827a1.425,1.425,0,0,1,2.013,0l2.827,2.827a1.424,1.424,0,0,1,0,2.013l-2.827,2.827a1.424,1.424,0,0,1-2.013,0Zm.664-9.514a2.861,2.861,0,0,0-1.695.821l-2.825,2.825a2.865,2.865,0,0,0-.821,1.694l-2.056.157a14.507,14.507,0,0,1,7.556-7.556Zm-5.144,6.785a2.855,2.855,0,0,0,.621.93l.9.9-.767.766-2.467-2.466Zm1.787,3.63.77-.77.9.9a2.861,2.861,0,0,0,1.131.7l-.074,1.9Zm4.253.922a2.855,2.855,0,0,0,1.484-.793l2.827-2.827a2.856,2.856,0,0,0,.793-1.484l2.29-.093a18.649,18.649,0,0,1-7.489,7.489Zm5-6.555a2.868,2.868,0,0,0-.7-1.13l-.9-.9.77-.769,2.725,2.725Zm-1.855-3.826-.769.769-.9-.9a2.857,2.857,0,0,0-.931-.621l.128-1.719Zm5.756,8.217-5.97,5.97a1.742,1.742,0,0,1-2.461,0l-.111-.111a20.063,20.063,0,0,0,8.434-8.433l.11.11a1.742,1.742,0,0,1,0,2.463Z" transform="translate(-335.091 1071.822)" fill="#fff"/>
    <path id="Path_68" data-name="Path 68" d="M274.241,136.062l-5.973,5.973a3.2,3.2,0,0,0,0,4.516l11.92,11.92a3.2,3.2,0,0,0,4.516,0l5.973-5.973a3.2,3.2,0,0,0,0-4.516l-11.92-11.92a3.2,3.2,0,0,0-4.516,0m-4.945,7,5.973-5.973a1.742,1.742,0,0,1,2.462,0l1.781,1.781a16.041,16.041,0,0,0-8.434,8.434l-1.782-1.782a1.742,1.742,0,0,1,0-2.461Zm9.882,8.749-2.823-2.823a1.424,1.424,0,0,1,0-2.013l2.827-2.827a1.426,1.426,0,0,1,2.013,0l2.827,2.827a1.424,1.424,0,0,1,0,2.013l-2.827,2.827a1.424,1.424,0,0,1-2.013,0Zm.664-9.514a2.86,2.86,0,0,0-1.694.821l-2.825,2.825a2.865,2.865,0,0,0-.821,1.694l-2.056.157A14.506,14.506,0,0,1,280,140.239Zm-5.144,6.785a2.855,2.855,0,0,0,.621.93l.9.9-.766.766-2.467-2.466Zm1.787,3.63.77-.77.9.9a2.86,2.86,0,0,0,1.131.7l-.074,1.9Zm4.253.922a2.854,2.854,0,0,0,1.484-.793l2.827-2.827a2.857,2.857,0,0,0,.793-1.484l2.29-.093a18.648,18.648,0,0,1-7.489,7.489Zm5-6.555a2.871,2.871,0,0,0-.7-1.13l-.9-.9.77-.769,2.725,2.725Zm-1.855-3.826-.769.769-.9-.9a2.857,2.857,0,0,0-.93-.621l.128-1.719Zm5.756,8.217-5.97,5.97a1.742,1.742,0,0,1-2.461,0l-.111-.111a20.061,20.061,0,0,0,8.434-8.433l.11.11a1.742,1.742,0,0,1,0,2.463Z" transform="translate(-324.959 1071.822)" fill="#fff"/>
    <path id="Path_69" data-name="Path 69" d="M333.062,111.925l5.972-5.973a3.2,3.2,0,0,0,0-4.517L327.117,89.516a3.2,3.2,0,0,0-4.519,0l-.724.724a.732.732,0,0,0,.909,1.148.742.742,0,0,0,.12-.12l.724-.724a1.742,1.742,0,0,1,2.461,0l1.785,1.785a16.037,16.037,0,0,0-8.431,8.431l-1.785-1.784a1.743,1.743,0,0,1-.007-2.462l3.192-3.191a.732.732,0,0,0-.909-1.148.724.724,0,0,0-.119.119l-3.192,3.192a3.2,3.2,0,0,0,0,4.517l11.923,11.922a3.2,3.2,0,0,0,4.516,0m4.944-7-5.973,5.973a1.742,1.742,0,0,1-2.457,0l-.11-.111a20.064,20.064,0,0,0,8.433-8.433l.111.11a1.742,1.742,0,0,1,0,2.463m-13.16,1.24.769-.769.9.9a2.857,2.857,0,0,0,1.131.7l-.074,1.9Zm11.16-5.708-1.9.073a2.854,2.854,0,0,0-.7-1.13l-.9-.9.77-.77Zm-6.911,6.628a2.865,2.865,0,0,0,1.484-.793l2.827-2.827a2.866,2.866,0,0,0,.793-1.484l2.3-.087a18.63,18.63,0,0,1-7.488,7.488Zm.459-9.484,2.827,2.827a1.424,1.424,0,0,1,0,2.013l-2.829,2.829a1.424,1.424,0,0,1-2.013,0l-2.826-2.826a1.424,1.424,0,0,1,0-2.013L327.54,97.6a1.425,1.425,0,0,1,2.013,0Zm2.7-.9-.77.77-.9-.9a2.871,2.871,0,0,0-.93-.622l.128-1.72Zm-3.889-3.011-.156,2.064a2.865,2.865,0,0,0-1.694.821L323.685,99.4a2.861,2.861,0,0,0-.821,1.695l-2.061.152a14.507,14.507,0,0,1,7.556-7.556Zm-5.3,8.847a2.86,2.86,0,0,0,.622.931l.9.9-.768.768-2.472-2.472Z" transform="translate(-334.987 1081.475)" fill="#fff"/>
    <path id="Path_70" data-name="Path 70" d="M322.044,132.863a.733.733,0,0,0-1.035,0L309.1,144.776a.732.732,0,0,0,.908,1.148.7.7,0,0,0,.12-.12l11.916-11.915a.733.733,0,0,0,0-1.026" transform="translate(-333.563 1072.335)" fill="#fff"/>
    <path id="Path_71" data-name="Path 71" d="M343.155,104.908l-16.516,16.516-16.513-16.513a.732.732,0,0,0-1.171.879.707.707,0,0,0,.146.146l16.513,16.513-2.544,2.544a.732.732,0,1,0,.908,1.148.707.707,0,0,0,.12-.12l2.544-2.544,16.516,16.516a.732.732,0,0,0,1.028-1.028l-16.516-16.516,16.513-16.513a.732.732,0,1,0-.908-1.148.743.743,0,0,0-.12.12" transform="translate(-333.561 1078.149)" fill="#fff"/>
    <path id="Path_72" data-name="Path 72" d="M299.633,155.275a.731.731,0,0,0-1.035,0l-11.912,11.912a.732.732,0,1,0,.908,1.148.743.743,0,0,0,.12-.119L299.629,156.3a.732.732,0,0,0,0-1.025" transform="translate(-328.914 1067.688)" fill="#fff"/>
    <path id="Path_73" data-name="Path 73" d="M320.745,127.319l-16.516,16.516-16.513-16.513a.732.732,0,0,0-1.171.879.709.709,0,0,0,.146.146L303.2,144.86l-2.544,2.544a.732.732,0,0,0,.908,1.148.711.711,0,0,0,.12-.12l2.544-2.544L320.748,162.4a.732.732,0,0,0,1.029-1.028L305.259,144.86l16.513-16.513a.732.732,0,0,0-.908-1.148.743.743,0,0,0-.12.12" transform="translate(-328.913 1073.501)" fill="#fff"/>
    <path id="Path_74" data-name="Path 74" d="M354.711,117.682a6.531,6.531,0,0,0-9.225.054l-2.72,2.72a2.583,2.583,0,0,0-.624.977,2.546,2.546,0,0,0,.612,2.666l8.883,8.884a2.075,2.075,0,0,0,2.933,0l.69-.69a2.073,2.073,0,0,0,0-2.933l-1.53-1.53.931-.93a6.531,6.531,0,0,0,.05-9.219m-1.083,8.2c-.335.335-.912.911-1.442,1.453a.731.731,0,0,0,.006,1.029l2.031,2.031a.619.619,0,0,1,0,.874l-.69.69a.62.62,0,0,1-.874,0l-8.884-8.884a1.1,1.1,0,0,1-.263-1.156,1.158,1.158,0,0,1,.279-.427l2.72-2.72a5.032,5.032,0,1,1,7.226,7l-.111.111Z" transform="translate(-340.443 1075.829)" fill="#fff"/>
    <path id="Path_75" data-name="Path 75" d="M349.233,121.278l-1.442,1.441a.733.733,0,0,0,0,1.035l.65.65c.786.786,1.915,1.906,2.328,2.314a.731.731,0,0,0,1.029-.006c.53-.53,1.092-1.1,1.425-1.435a2.824,2.824,0,0,0-3.874-4.11c-.04.038-.079.078-.117.119Zm2.964,2.963-.921.922c-.518-.518-1.248-1.248-1.809-1.8l-.134-.134.926-.925a1.371,1.371,0,1,1,2.051,1.82,1.557,1.557,0,0,1-.116.115Z" transform="translate(-341.601 1074.876)" fill="#fff"/>
    <path id="Path_76" data-name="Path 76" d="M367.777,127.493a.732.732,0,0,0,0,1.035l.035.034a.732.732,0,0,0,1.028-1.028l-.035-.034a.732.732,0,0,0-1.028-.007" transform="translate(-345.746 1073.448)" fill="#fff"/>
    <path id="Path_77" data-name="Path 77" d="M364.928,128.511a.732.732,0,0,0,0,1.036l.035.034a.732.732,0,0,0,1.028-1.029l-.035-.034a.732.732,0,0,0-1.028-.007" transform="translate(-345.155 1073.237)" fill="#fff"/>
    <path id="Path_78" data-name="Path 78" d="M366.8,126.645a.732.732,0,0,0,0-1.035l-.035-.034a.732.732,0,0,0-1.028,1.028l.035.034a.732.732,0,0,0,1.028.007" transform="translate(-345.334 1073.835)" fill="#fff"/>
    <path id="Path_79" data-name="Path 79" d="M299,130.416a.732.732,0,0,0,0-1.035l-.035-.034a.732.732,0,0,0-1.028,1.028l.035.034a.732.732,0,0,0,1.028.007" transform="translate(-331.272 1073.053)" fill="#fff"/>
    <path id="Path_80" data-name="Path 80" d="M298.32,133.334a.732.732,0,0,0,0-1.035l-.029-.028a.732.732,0,0,0-1.148.909.779.779,0,0,0,.12.119l.034.035a.732.732,0,0,0,1.023,0" transform="translate(-331.108 1072.472)" fill="#fff"/>
    <path id="Path_81" data-name="Path 81" d="M296.244,131.114a.731.731,0,0,0,0-1.035l-.035-.034a.732.732,0,1,0-1.147.908.7.7,0,0,0,.119.12l.035.034a.731.731,0,0,0,1.028.007" transform="translate(-330.677 1072.933)" fill="#fff"/>
    <path id="Path_82" data-name="Path 82" d="M299,175.939a.732.732,0,0,0,0-1.035l-.035-.034a.732.732,0,0,0-1.028,1.028l.035.034a.732.732,0,0,0,1.028.007" transform="translate(-331.272 1063.612)" fill="#fff"/>
    <path id="Path_83" data-name="Path 83" d="M298.32,178.858a.731.731,0,0,0,0-1.035l-.029-.029a.732.732,0,0,0-1.148.909.744.744,0,0,0,.12.119l.034.035a.732.732,0,0,0,1.023,0" transform="translate(-331.108 1063.03)" fill="#fff"/>
    <path id="Path_84" data-name="Path 84" d="M296.244,176.637a.731.731,0,0,0,0-1.035l-.035-.034a.732.732,0,1,0-1.147.908.7.7,0,0,0,.119.12l.035.034a.731.731,0,0,0,1.028.007" transform="translate(-330.677 1063.492)" fill="#fff"/>
    <path id="Path_85" data-name="Path 85" d="M306.488,175.974a1.694,1.694,0,1,1,1.4,1.943,1.694,1.694,0,0,1-1.4-1.943" transform="translate(-333.075 1063.645)" fill="#fff"/>
    <path id="Path_86" data-name="Path 86" d="M314.815,164.925a12.143,12.143,0,0,0-17.174,0,1.694,1.694,0,1,0,2.4,2.391,8.758,8.758,0,0,1,12.376,0,1.694,1.694,0,1,0,2.4-2.391" transform="translate(-331.139 1066.379)" fill="#fff"/>
    <path id="Path_87" data-name="Path 87" d="M307.194,167.96a6.918,6.918,0,0,0-4.892,2.027,1.694,1.694,0,0,0,2.4,2.4,3.53,3.53,0,0,1,4.993,0,1.694,1.694,0,1,0,2.394-2.4,6.914,6.914,0,0,0-4.891-2.027" transform="translate(-332.106 1065.012)" fill="#fff"/>
    <g id="Group_46469" data-name="Group 46469" transform="translate(-34.461 1191.075)">
      <path id="Path_88" data-name="Path 88" d="M309.276,116.981a6.531,6.531,0,0,0-9.225.054l-2.721,2.72a2.583,2.583,0,0,0-.623.977,2.546,2.546,0,0,0,.612,2.666l8.883,8.884a2.075,2.075,0,0,0,2.933,0l.691-.69a2.073,2.073,0,0,0,0-2.933l-1.53-1.53.93-.931a6.532,6.532,0,0,0,.051-9.219m-1.083,8.2c-.335.335-.912.911-1.442,1.453a.731.731,0,0,0,0,1.029l2.031,2.031a.617.617,0,0,1,0,.874l-.69.69a.62.62,0,0,1-.874,0l-8.884-8.884a1.1,1.1,0,0,1-.262-1.156,1.137,1.137,0,0,1,.279-.427l2.72-2.72a5.031,5.031,0,1,1,7.225,7l-.111.111Z" transform="translate(-296.559 -115.1)" fill="#fff"/>
      <path id="Path_89" data-name="Path 89" d="M303.8,120.576l-1.442,1.441a.733.733,0,0,0,0,1.035l.65.65c.786.786,1.915,1.906,2.328,2.314a.731.731,0,0,0,1.029-.006c.53-.53,1.092-1.1,1.425-1.435a2.824,2.824,0,0,0-3.874-4.11c-.04.039-.079.079-.117.119Zm2.964,2.963-.921.922c-.518-.518-1.248-1.248-1.809-1.8l-.134-.134.926-.925a1.371,1.371,0,0,1,2.051,1.82,1.568,1.568,0,0,1-.116.116Z" transform="translate(-297.717 -116.054)" fill="#fff"/>
    </g>
    <g id="Group_46477" data-name="Group 46477" transform="translate(-66.535 1242.267)">
      <rect id="Rectangle_32" data-name="Rectangle 32" width="3.819" height="13.877" transform="translate(67.413 7.864)" fill="#fff"/>
      <path id="Path_44" data-name="Path 44" d="M351.5,189.573h-3.819v6.105a6.116,6.116,0,0,1,3.819-5.661v-.444" transform="translate(-275.087 -181.738)" fill="#fff"/>
      <path id="Path_45" data-name="Path 45" d="M354.783,189.573a6.065,6.065,0,0,0-2.287.445v5.661a2.286,2.286,0,1,1,4.573,0v7.8h3.819v-7.8a6.112,6.112,0,0,0-6.1-6.1" transform="translate(-276.086 -181.738)" fill="#fff"/>
      <path id="Path_46" data-name="Path 46" d="M351.5,190.134a6.115,6.115,0,0,0-3.819,5.66v7.8H351.5V190.134" transform="translate(-275.087 -181.854)" fill="#fff"/>
      <path id="Path_47" data-name="Path 47" d="M371.357,189.585a6.945,6.945,0,0,0-5.482,11.212,4.4,4.4,0,0,1,2.954-1.135h2.528a3.129,3.129,0,1,1,3.129-3.129v-3.211a3.7,3.7,0,0,1,.907-2.441,6.91,6.91,0,0,0-4.036-1.3" transform="translate(-278.557 -181.74)" fill="#fff"/>
      <path id="Path_48" data-name="Path 48" d="M380.132,189.585h-1.909a3.71,3.71,0,0,0-2.643,1.094c-.065.065-.128.132-.188.2a6.946,6.946,0,0,1,2.912,5.652V193.4h1.827v-3.819m-2.115,8.929a6.961,6.961,0,0,1-6.66,4.966,6.961,6.961,0,0,0,6.659-4.966M365.875,200.8a4.418,4.418,0,0,0,2.954,7.7h5.055a.6.6,0,1,1,0,1.2h-4.437v3.819h4.437a4.42,4.42,0,1,0,0-8.841h-5.055a.6.6,0,1,1,0-1.2h2.528a6.938,6.938,0,0,1-5.482-2.683" transform="translate(-278.557 -181.74)" fill="#fff"/>
      <path id="Path_49" data-name="Path 49" d="M375.778,191.22a3.711,3.711,0,0,0-.907,2.441v3.211A3.132,3.132,0,0,1,371.741,200h-2.528a4.4,4.4,0,0,0-2.954,1.135,6.946,6.946,0,1,0,9.518-9.916" transform="translate(-278.941 -182.079)" fill="#fff"/>
      <rect id="Rectangle_34" data-name="Rectangle 34" width="3.396" height="8.128" transform="translate(16.857 13.57)" fill="#fff"/>
      <path id="Path_50" data-name="Path 50" d="M287.473,182.258h-5.542a3.179,3.179,0,0,1,3.176,3.177v.222h2.366a2.365,2.365,0,0,1,0,4.73h-2.366v3.4h2.366a5.764,5.764,0,1,0,0-11.528Z" transform="translate(-261.451 -180.221)" fill="#ffb85f"/>
      <path id="Path_51" data-name="Path 51" d="M280.143,193.79h3.4v-3.41h-3.4Zm.227-11.538H274.4v3.4h9.137v-.213a3.175,3.175,0,0,0-3.169-3.183" transform="translate(-259.889 -180.219)" fill="#ffb85f"/>
      <path id="Path_52" data-name="Path 52" d="M273.38,187.255l-3.085-1.577-3.085-1.578,3.074-2.206,3.074-2.207.01,3.784Z" transform="translate(-258.398 -179.688)" fill="#ffb85f"/>
      <path id="Path_53" data-name="Path 53" d="M307.174,203.193v.668h3.4V197.68a6.19,6.19,0,0,1-3.4,5.513m0-11.708v.668a6.2,6.2,0,0,1,3.4,5.527v-6.195Z" transform="translate(-266.686 -182.134)" fill="#fff"/>
      <path id="Path_54" data-name="Path 54" d="M302.033,191.492a6.184,6.184,0,1,0,2.785,11.7v-5.52a2.785,2.785,0,1,1-2.785-2.785,2.786,2.786,0,0,1,2.785,2.785v-5.52a6.138,6.138,0,0,0-2.785-.663" transform="translate(-264.337 -182.136)" fill="#fff"/>
      <path id="Path_55" data-name="Path 55" d="M307.165,192.329v11.04a6.182,6.182,0,0,0,0-11.04" transform="translate(-266.685 -182.309)" fill="#fff"/>
      <path id="Path_56" data-name="Path 56" d="M317.682,191.481h-3.4v4.6a4.608,4.608,0,0,1,3.4-4.445Z" transform="translate(-268.161 -182.134)" fill="#fff"/>
      <path id="Path_57" data-name="Path 57" d="M319.776,191.481a4.637,4.637,0,0,0-1.2.159v4.445a1.2,1.2,0,0,1,2.055-.852l2.4-2.4A4.576,4.576,0,0,0,319.776,191.481Z" transform="translate(-269.05 -182.134)" fill="#fff"/>
      <path id="Path_58" data-name="Path 58" d="M317.682,191.681a4.609,4.609,0,0,0-3.4,4.445V203.9h3.4Z" transform="translate(-268.161 -182.175)" fill="#fff"/>
      <path id="Path_59" data-name="Path 59" d="M336.009,197.836a5.006,5.006,0,0,1-3.762,1.7,1.624,1.624,0,0,0-1.621,1.621,1.621,1.621,0,1,1,3.242,0v4.036h3.4v-4.036a5,5,0,0,0-1.258-3.32" transform="translate(-271.551 -183.452)" fill="#fff"/>
      <path id="Path_60" data-name="Path 60" d="M337.266,191.5h-3.4v1.7a1.623,1.623,0,0,1-1.621,1.621,5,5,0,0,0-1.622.269,5.018,5.018,0,0,1,5.383,1.431,5,5,0,0,0,1.258-3.32Z" transform="translate(-271.55 -182.138)" fill="#fff"/>
      <path id="Path_61" data-name="Path 61" d="M332.248,195.693a4.992,4.992,0,0,0-1.621.269v4.751a1.623,1.623,0,0,1,1.621-1.621,5.014,5.014,0,0,0,3.762-1.7,5.007,5.007,0,0,0-3.762-1.7" transform="translate(-271.551 -183.007)" fill="#fff"/>
      <path id="Path_62" data-name="Path 62" d="M329.737,182.293h-3.4v15.64a5.029,5.029,0,0,1,3.4-4.751Z" transform="translate(-270.661 -180.228)" fill="#fff"/>
      <path id="Path_63" data-name="Path 63" d="M329.737,196.03a5.029,5.029,0,0,0-3.4,4.752v4.035h3.4V196.03Z" transform="translate(-270.661 -183.077)" fill="#fff"/>
      <rect id="Rectangle_35" data-name="Rectangle 35" width="3.396" height="3.266" transform="translate(17.083 7.132)" fill="#fff"/>
      <path id="Path_64" data-name="Path 64" d="M263.041,189.414a6.95,6.95,0,1,0,.213,13.9,8.047,8.047,0,0,0,5.553-2.21l-2.474-2.908a4.385,4.385,0,0,1-3.154,1.225,2.877,2.877,0,0,1-1.61-.424l-.126.051-3.868,1.6a6.785,6.785,0,0,1-1.388-3.131l3.919-1.619v0a3.006,3.006,0,0,1,1.768-2.421,2.66,2.66,0,0,1,1.085-.227,3.03,3.03,0,0,1,1.849.634c.02.017.04.034.06.052l3.837-1.585a7.011,7.011,0,0,1,.676,1.182,6.937,6.937,0,0,0-6.342-4.107m6.346,4.114.007.015-.007-.015m.014.033,0,.006,0-.006m.015.033,0,.006,0-.006m.013.029,0,.006,0-.006m.763,1.807-3.85,1.592,3.85-1.592" transform="translate(-256.092 -181.705)" fill="#fff"/>
      <path id="Path_65" data-name="Path 65" d="M270.425,194.594l0,.007,0-.007m.01.021.008.018-.008-.018m.01.025.012.027-.012-.027m.014.033.01.023-.01-.023m.013.029.012.029.75,1.773-.75-1.773-.012-.029m-4.561.3-2.36.975-2.263.935-.139.058a3.069,3.069,0,0,0,1.344,3.019c.039.028.078.055.118.081l4.248-1.754.524-.217a7.08,7.08,0,0,0-1.472-3.1" transform="translate(-257.135 -182.779)" fill="#fff"/>
      <path id="Path_66" data-name="Path 66" d="M268.731,193.1l-3.838,1.585a7.065,7.065,0,0,1,1.473,3.1l3.851-1.592-.75-1.773-.012-.028,0-.006-.01-.023,0-.006-.013-.027,0-.006-.008-.018-.006-.015,0-.006a6.992,6.992,0,0,0-.676-1.183m-8.6,3.552-3.919,1.619a6.8,6.8,0,0,0,1.388,3.132l3.868-1.6.126-.052c-.04-.025-.079-.052-.118-.081a3.069,3.069,0,0,1-1.344-3.019" transform="translate(-256.117 -182.47)" fill="#fff"/>
      <path id="Path_90" data-name="Path 90" d="M270.776,223.321h-.163a5.9,5.9,0,0,1-5.989-4.088h-1.881c-1.982,0-2.964.8-2.964,2.391,0,1.492.981,2.228,2.964,2.228h2.105v2.841h-1.9c-3.985,0-6.029-1.962-6.029-5.13a4.873,4.873,0,0,1,4.252-5.049,28.147,28.147,0,0,1,2.964-.1,3.046,3.046,0,0,0-3.291-2.718,3.565,3.565,0,0,0-1.247.224v-2.534a6.825,6.825,0,0,1,1.431-.164c3.659,0,5.744,2.249,5.989,6.235.368,2.126,1.512,3.127,3.413,3.127h.348Zm-6.643-.736h-2.555v-2.35h2.555Zm15.449.736h-9.218v-2.739h1.88c.961,0,1.451-.654,1.451-1.962v-4.558h2.882v4.456a6.08,6.08,0,0,1-.347,2.064h3.352Zm-3.23-10.813H273.8v-2.35h2.555Zm4.945,14.2h-2.535v-2.371H281.3Zm7.132-3.392h-9.2v-2.739h1.88c.961,0,1.431-.654,1.431-1.962v-4.558h2.882v4.456a6.065,6.065,0,0,1-.327,2.064h3.331Zm-3.29,3.392h-2.535v-2.371h2.535Zm17.065-3.392H287.325v-2.739H299.1a4.26,4.26,0,0,0-4.149-3.9H289.8l4.087-6.52h3.393l-2.575,3.883h1.573c3.9.409,5.928,3.414,5.928,8.217Zm8.485-1.881a5.124,5.124,0,0,1-1.431,4.068,6.276,6.276,0,0,1-4.271,1.186v-2.31q2.82,0,2.82-2.7v-7.624h2.882Zm9.325,1.881h-2.7a3.129,3.129,0,0,1-3.454-3.373v-9.811h2.861v8.318c0,1.39.348,2.126,2.453,2.126h.838Zm8.767,0h-9.218v-2.739h1.88c.961,0,1.451-.654,1.451-1.962v-4.558h2.882v4.456a6.065,6.065,0,0,1-.347,2.064h3.352Zm-3.291,3.392h-2.534v-2.371h2.534Zm4.965,0h-2.534v-2.371h2.534Zm4.047-7.337a4.1,4.1,0,0,1-.9,2.7,3.4,3.4,0,0,1-2.8,1.247h-2.432v-2.739h1.819c.961,0,1.451-.674,1.451-2v-4.517H334.5Zm-.184,7.337h-2.554v-2.371h2.554Zm6.218-3.392h-2.861V210.138h2.861Z" transform="translate(-256.263 -186.003)" fill="#fff"/>
    </g>
  </g>
</svg>
