<svg xmlns="http://www.w3.org/2000/svg" width="128.154" height="142.469" viewBox="0 0 128.154 142.469">
  <g id="Group_44601" data-name="Group 44601" transform="translate(-5005.092 -203.944)">
    <rect id="Rectangle_32" data-name="Rectangle 32" width="4.818" height="17.508" transform="translate(5090.145 304.971)" fill="#005364"/>
    <rect id="Rectangle_33" data-name="Rectangle 33" width="4.818" height="5.085" transform="translate(5090.145 294.689)" fill="#005364"/>
    <path id="Path_44" data-name="Path 44" d="M352.5,189.573h-4.818v7.7a7.717,7.717,0,0,1,4.818-7.142v-.56" transform="translate(4749 115.362)" fill="#005364"/>
    <path id="Path_45" data-name="Path 45" d="M355.381,189.573a7.651,7.651,0,0,0-2.885.561v7.142a2.885,2.885,0,1,1,5.769,0v9.842h4.818v-9.842a7.711,7.711,0,0,0-7.7-7.7" transform="translate(4749 115.362)" fill="#005364"/>
    <path id="Path_46" data-name="Path 46" d="M352.5,190.134a7.716,7.716,0,0,0-4.818,7.141v9.843H352.5V190.134" transform="translate(4749 115.362)" fill="#005364"/>
    <path id="Path_47" data-name="Path 47" d="M373.175,189.585a8.762,8.762,0,0,0-6.917,14.146,5.556,5.556,0,0,1,3.727-1.432h3.19a3.948,3.948,0,1,1,3.948-3.948V194.3a4.674,4.674,0,0,1,1.144-3.08,8.719,8.719,0,0,0-5.092-1.635" transform="translate(4749 115.362)" fill="#005364"/>
    <path id="Path_48" data-name="Path 48" d="M384.246,189.585h-2.408a4.681,4.681,0,0,0-3.334,1.38c-.082.082-.161.167-.237.254a8.763,8.763,0,0,1,3.674,7.131V194.4h2.3v-4.818m-2.668,11.266a8.782,8.782,0,0,1-8.4,6.265,8.782,8.782,0,0,0,8.4-6.265m-15.318,2.88a5.574,5.574,0,0,0,3.727,9.721h6.378a.759.759,0,0,1,0,1.518h-5.6v4.818h5.6a5.577,5.577,0,1,0,0-11.154h-6.378a.759.759,0,1,1,0-1.518h3.189a8.754,8.754,0,0,1-6.916-3.385" transform="translate(4749 115.362)" fill="#005364"/>
    <path id="Path_49" data-name="Path 49" d="M378.268,191.22a4.682,4.682,0,0,0-1.145,3.08v4.051a3.951,3.951,0,0,1-3.948,3.948h-3.189a5.554,5.554,0,0,0-3.727,1.432,8.763,8.763,0,1,0,12.009-12.511" transform="translate(4749 115.362)" fill="#005364"/>
    <rect id="Rectangle_34" data-name="Rectangle 34" width="4.285" height="10.255" transform="translate(5026.36 312.171)" fill="#005364"/>
    <path id="Path_50" data-name="Path 50" d="M288.923,182.258h-6.992a4.011,4.011,0,0,1,4.007,4.008v.28h2.985a2.984,2.984,0,1,1,0,5.968h-2.985V196.8h2.985a7.272,7.272,0,1,0,0-14.544Z" transform="translate(4749 115.362)" fill="#dda154"/>
    <path id="Path_51" data-name="Path 51" d="M281.645,196.809h4.285v-4.3h-4.285Zm.287-14.557H274.4v4.285H285.93v-.269a4.006,4.006,0,0,0-4-4.016" transform="translate(4749 115.362)" fill="#dda154"/>
    <path id="Path_52" data-name="Path 52" d="M274.995,189.236l-3.892-1.99-3.892-1.991,3.878-2.783,3.879-2.784.013,4.774Z" transform="translate(4749 115.362)" fill="#dda154"/>
    <path id="Path_53" data-name="Path 53" d="M307.174,206.257v.843h4.285v-7.8a7.81,7.81,0,0,1-4.285,6.956m0-14.772v.843a7.822,7.822,0,0,1,4.285,6.973v-7.816Z" transform="translate(4749 115.362)" fill="#005364"/>
    <path id="Path_54" data-name="Path 54" d="M303.651,191.492a7.8,7.8,0,1,0,3.514,14.766v-6.964a3.514,3.514,0,1,1-3.514-3.514,3.515,3.515,0,0,1,3.514,3.514v-6.965a7.744,7.744,0,0,0-3.514-.837" transform="translate(4749 115.362)" fill="#005364"/>
    <path id="Path_55" data-name="Path 55" d="M307.165,192.329v13.929a7.8,7.8,0,0,0,0-13.929" transform="translate(4749 115.362)" fill="#005364"/>
    <path id="Path_56" data-name="Path 56" d="M318.571,191.481h-4.288v5.808a5.814,5.814,0,0,1,4.288-5.608Z" transform="translate(4749 115.362)" fill="#005364"/>
    <path id="Path_57" data-name="Path 57" d="M320.091,191.481a5.85,5.85,0,0,0-1.519.2v5.608a1.518,1.518,0,0,1,2.593-1.075l3.032-3.033A5.773,5.773,0,0,0,320.091,191.481Z" transform="translate(4749 115.362)" fill="#005364"/>
    <path id="Path_58" data-name="Path 58" d="M318.571,191.681a5.815,5.815,0,0,0-4.288,5.608V207.1h4.288Z" transform="translate(4749 115.362)" fill="#005364"/>
    <path id="Path_59" data-name="Path 59" d="M337.417,197.836a6.316,6.316,0,0,1-4.746,2.144,2.049,2.049,0,0,0-2.045,2.045,2.045,2.045,0,1,1,4.09,0v5.092H339v-5.092a6.3,6.3,0,0,0-1.587-4.189" transform="translate(4749 115.362)" fill="#005364"/>
    <path id="Path_60" data-name="Path 60" d="M339,191.5h-4.288v2.144a2.048,2.048,0,0,1-2.045,2.045,6.3,6.3,0,0,0-2.046.339,6.331,6.331,0,0,1,6.792,1.805A6.312,6.312,0,0,0,339,193.646Z" transform="translate(4749 115.362)" fill="#005364"/>
    <path id="Path_61" data-name="Path 61" d="M332.672,195.693a6.293,6.293,0,0,0-2.045.339v5.994a2.047,2.047,0,0,1,2.045-2.045,6.326,6.326,0,0,0,4.746-2.144,6.318,6.318,0,0,0-4.746-2.144" transform="translate(4749 115.362)" fill="#005364"/>
    <path id="Path_62" data-name="Path 62" d="M330.626,182.293h-4.288v19.732a6.345,6.345,0,0,1,4.288-5.994Z" transform="translate(4749 115.362)" fill="#005364"/>
    <path id="Path_63" data-name="Path 63" d="M330.626,196.03a6.345,6.345,0,0,0-4.288,5.995v5.091h4.288V196.03Z" transform="translate(4749 115.362)" fill="#005364"/>
    <rect id="Rectangle_35" data-name="Rectangle 35" width="4.285" height="4.121" transform="translate(5026.645 304.048)" fill="#005364"/>
    <path id="Path_64" data-name="Path 64" d="M264.859,189.414a8.768,8.768,0,1,0,.269,17.532,10.153,10.153,0,0,0,7.006-2.789l-3.122-3.669a5.533,5.533,0,0,1-3.979,1.545A3.629,3.629,0,0,1,263,201.5l-.159.065-4.88,2.016a8.562,8.562,0,0,1-1.751-3.95l4.944-2.043v-.005a3.793,3.793,0,0,1,2.231-3.055,3.359,3.359,0,0,1,1.369-.287,3.823,3.823,0,0,1,2.333.8c.026.021.051.043.076.066l4.841-2a8.843,8.843,0,0,1,.853,1.491,8.752,8.752,0,0,0-8-5.182m8.007,5.19.009.019-.009-.019m.018.042,0,.008,0-.008m.019.042,0,.007,0-.007m.016.036,0,.008,0-.008m.963,2.28-4.858,2.008L273.88,197" transform="translate(4749 115.362)" fill="#005364"/>
    <path id="Path_65" data-name="Path 65" d="M272.859,194.594l0,.009,0-.009m.013.027.01.023-.01-.023m.013.031.015.034-.015-.034m.018.041.013.029-.013-.029m.016.036.015.036L273.88,197l-.946-2.237-.015-.036m-5.754.374-2.978,1.23-2.855,1.179-.176.073a3.872,3.872,0,0,0,1.7,3.809c.049.035.1.07.149.1l5.36-2.213.661-.274c0-.011-.575-2.731-1.857-3.907" transform="translate(4749 115.362)" fill="#005364"/>
    <path id="Path_66" data-name="Path 66" d="M272.007,193.1l-4.842,2c1.283,1.175,1.855,3.895,1.858,3.908L273.881,197l-.946-2.237-.015-.035,0-.008-.012-.029,0-.007-.016-.034,0-.008-.01-.023-.008-.019,0-.008a8.811,8.811,0,0,0-.853-1.492m-10.851,4.482-4.945,2.042a8.581,8.581,0,0,0,1.751,3.951l4.88-2.016L263,201.5c-.051-.032-.1-.066-.149-.1a3.872,3.872,0,0,1-1.7-3.809" transform="translate(4749 115.362)" fill="#005364"/>
    <path id="Path_67" data-name="Path 67" d="M324.9,136.306l-7.536,7.536a4.034,4.034,0,0,0,0,5.7L332.4,164.579a4.034,4.034,0,0,0,5.7,0l7.536-7.536a4.034,4.034,0,0,0,0-5.7L330.6,136.306a4.034,4.034,0,0,0-5.7,0m-6.239,8.833L326.2,137.6a2.2,2.2,0,0,1,3.106,0l2.247,2.247a20.238,20.238,0,0,0-10.641,10.641l-2.248-2.248a2.2,2.2,0,0,1,0-3.1Zm12.468,11.038-3.562-3.562a1.8,1.8,0,0,1,0-2.54l3.567-3.567a1.8,1.8,0,0,1,2.54,0l3.567,3.567a1.8,1.8,0,0,1,0,2.54l-3.567,3.567a1.8,1.8,0,0,1-2.54,0Zm.838-12a3.609,3.609,0,0,0-2.138,1.036l-3.564,3.564a3.615,3.615,0,0,0-1.036,2.137l-2.594.2a18.3,18.3,0,0,1,9.533-9.533Zm-6.49,8.56a3.6,3.6,0,0,0,.784,1.174l1.135,1.135-.967.967-3.113-3.112Zm2.255,4.58.971-.971,1.135,1.135a3.608,3.608,0,0,0,1.427.879l-.093,2.4Zm5.366,1.163a3.6,3.6,0,0,0,1.872-1l3.567-3.567a3.6,3.6,0,0,0,1-1.872l2.889-.117a23.529,23.529,0,0,1-9.448,9.448Zm6.312-8.27a3.619,3.619,0,0,0-.877-1.426l-1.134-1.134.971-.97,3.438,3.438Zm-2.34-4.827-.97.97-1.134-1.134a3.6,3.6,0,0,0-1.174-.784l.162-2.169Zm7.262,10.367-7.532,7.532a2.2,2.2,0,0,1-3.105,0l-.14-.14A25.31,25.31,0,0,0,344.2,152.5l.139.139a2.2,2.2,0,0,1,.005,3.108Z" transform="translate(4749 115.362)" fill="#f8b65b"/>
    <path id="Path_68" data-name="Path 68" d="M276.048,136.306l-7.536,7.536a4.034,4.034,0,0,0,0,5.7l15.039,15.039a4.034,4.034,0,0,0,5.7,0l7.536-7.536a4.034,4.034,0,0,0,0-5.7l-15.039-15.039a4.034,4.034,0,0,0-5.7,0m-6.239,8.833,7.536-7.536a2.2,2.2,0,0,1,3.106,0l2.247,2.247a20.238,20.238,0,0,0-10.641,10.641l-2.248-2.248a2.2,2.2,0,0,1,0-3.1Zm12.468,11.038-3.562-3.562a1.8,1.8,0,0,1,0-2.54l3.567-3.567a1.8,1.8,0,0,1,2.54,0l3.567,3.567a1.8,1.8,0,0,1,0,2.54l-3.567,3.567a1.8,1.8,0,0,1-2.54,0Zm.838-12a3.609,3.609,0,0,0-2.138,1.036l-3.564,3.564a3.615,3.615,0,0,0-1.036,2.137l-2.594.2a18.3,18.3,0,0,1,9.533-9.533Zm-6.49,8.56a3.6,3.6,0,0,0,.784,1.174l1.135,1.135-.967.967-3.113-3.112Zm2.255,4.58.971-.971,1.135,1.135a3.608,3.608,0,0,0,1.427.879l-.093,2.4Zm5.366,1.163a3.6,3.6,0,0,0,1.872-1l3.567-3.567a3.6,3.6,0,0,0,1-1.872l2.889-.117a23.529,23.529,0,0,1-9.448,9.448Zm6.312-8.27a3.619,3.619,0,0,0-.877-1.426l-1.134-1.134.971-.97,3.438,3.438Zm-2.34-4.827-.97.97-1.134-1.134a3.6,3.6,0,0,0-1.174-.784l.162-2.169Zm7.262,10.367-7.532,7.532a2.2,2.2,0,0,1-3.105,0l-.14-.14a25.31,25.31,0,0,0,10.641-10.64l.139.139a2.2,2.2,0,0,1,.005,3.108Z" transform="translate(4749 115.362)" fill="#f8b65b"/>
    <path id="Path_69" data-name="Path 69" d="M337.608,118.033l7.535-7.536a4.034,4.034,0,0,0,0-5.7L330.107,89.76a4.037,4.037,0,0,0-5.7,0l-.913.913a.924.924,0,0,0,1.147,1.448.937.937,0,0,0,.151-.151l.913-.913a2.2,2.2,0,0,1,3.1,0l2.252,2.252a20.234,20.234,0,0,0-10.637,10.637l-2.252-2.251a2.2,2.2,0,0,1-.009-3.106l4.027-4.026a.924.924,0,1,0-1.3-1.3l-4.027,4.027a4.034,4.034,0,0,0,0,5.7l15.043,15.042a4.034,4.034,0,0,0,5.7,0m6.238-8.833-7.536,7.536a2.2,2.2,0,0,1-3.1,0l-.139-.14a25.313,25.313,0,0,0,10.64-10.64l.14.139a2.2,2.2,0,0,1-.005,3.108m-16.6,1.565.97-.97,1.135,1.135a3.608,3.608,0,0,0,1.427.879l-.093,2.4Zm14.08-7.2-2.4.092a3.6,3.6,0,0,0-.877-1.426l-1.135-1.135.971-.971Zm-8.719,8.362a3.614,3.614,0,0,0,1.872-1l3.567-3.567a3.614,3.614,0,0,0,1-1.872l2.9-.11a23.5,23.5,0,0,1-9.448,9.448Zm.579-11.966,3.567,3.567a1.8,1.8,0,0,1,0,2.54l-3.569,3.569a1.8,1.8,0,0,1-2.54,0l-3.566-3.566a1.8,1.8,0,0,1,0-2.54l3.567-3.567a1.8,1.8,0,0,1,2.539,0Zm3.4-1.133-.971.971-1.134-1.134a3.623,3.623,0,0,0-1.174-.785l.161-2.17Zm-4.907-3.8-.2,2.6a3.615,3.615,0,0,0-2.137,1.036l-3.566,3.566a3.609,3.609,0,0,0-1.036,2.138l-2.6.192a18.3,18.3,0,0,1,9.533-9.533Zm-6.685,11.162a3.607,3.607,0,0,0,.785,1.174l1.136,1.136-.969.969-3.119-3.119Z" transform="translate(4749 115.362)" fill="#f8b65b"/>
    <path id="Path_70" data-name="Path 70" d="M325.5,132.919a.925.925,0,0,0-1.306,0l-15.029,15.03a.923.923,0,1,0,1.146,1.448.9.9,0,0,0,.151-.151L325.5,134.213a.925.925,0,0,0,0-1.294" transform="translate(4749 115.362)" fill="#005364"/>
    <path id="Path_71" data-name="Path 71" d="M352.143,104.984,331.3,125.822l-20.834-20.834a.924.924,0,0,0-1.477,1.109.891.891,0,0,0,.184.184l20.834,20.834-3.21,3.21a.923.923,0,0,0,1.146,1.448.9.9,0,0,0,.151-.151l3.21-3.21,20.838,20.838a.923.923,0,0,0,1.3-1.3l-20.838-20.838,20.834-20.834a.923.923,0,1,0-1.146-1.448.938.938,0,0,0-.151.151" transform="translate(4749 115.362)" fill="#005364"/>
    <path id="Path_72" data-name="Path 72" d="M303.093,155.331a.923.923,0,0,0-1.306,0L286.758,170.36a.923.923,0,1,0,1.3,1.3l15.034-15.034a.924.924,0,0,0,0-1.293" transform="translate(4749 115.362)" fill="#005364"/>
    <path id="Path_73" data-name="Path 73" d="M329.732,127.395l-20.838,20.838L288.06,127.4a.923.923,0,1,0-1.477,1.109.891.891,0,0,0,.184.184L307.6,149.526l-3.21,3.21a.923.923,0,0,0,1.146,1.448.9.9,0,0,0,.151-.151l3.21-3.21,20.838,20.838a.924.924,0,0,0,1.3-1.3L310.2,149.526l20.834-20.834a.923.923,0,1,0-1.146-1.448.938.938,0,0,0-.151.151" transform="translate(4749 115.362)" fill="#005364"/>
    <path id="Path_74" data-name="Path 74" d="M358.038,118.174a8.24,8.24,0,0,0-11.639.068l-3.432,3.432a3.259,3.259,0,0,0-.787,1.233,3.213,3.213,0,0,0,.772,3.364L354.16,137.48a2.618,2.618,0,0,0,3.7,0l.871-.871a2.616,2.616,0,0,0,0-3.7l-1.931-1.93,1.175-1.174a8.24,8.24,0,0,0,.063-11.631m-1.366,10.341c-.423.423-1.15,1.15-1.819,1.833a.922.922,0,0,0,.007,1.3l2.563,2.563a.781.781,0,0,1,0,1.1l-.871.871a.783.783,0,0,1-1.1,0L344.24,124.974a1.387,1.387,0,0,1-.331-1.458,1.458,1.458,0,0,1,.352-.539l3.432-3.432a6.348,6.348,0,1,1,9.117,8.837c-.046.047-.093.094-.14.14Z" transform="translate(4749 115.362)" fill="#005364"/>
    <path id="Path_75" data-name="Path 75" d="M349.666,121.508l-1.819,1.818a.925.925,0,0,0,0,1.306l.82.82c.992.992,2.416,2.4,2.937,2.919a.922.922,0,0,0,1.3-.008c.669-.669,1.378-1.39,1.8-1.81a3.563,3.563,0,0,0-4.888-5.186c-.051.048-.1.1-.148.15Zm3.739,3.738-1.162,1.163c-.653-.654-1.575-1.574-2.282-2.271l-.169-.169,1.168-1.167a1.73,1.73,0,1,1,2.588,2.3,2,2,0,0,1-.146.145Z" transform="translate(4749 115.362)" fill="#005364"/>
    <path id="Path_76" data-name="Path 76" d="M367.833,127.547a.923.923,0,0,0,0,1.306l.044.043a.923.923,0,0,0,1.3-1.3l-.044-.043a.923.923,0,0,0-1.3-.009" transform="translate(4749 115.362)" fill="#005364"/>
    <path id="Path_77" data-name="Path 77" d="M364.984,128.565a.924.924,0,0,0,0,1.307l.044.043a.924.924,0,0,0,1.3-1.3l-.044-.043a.924.924,0,0,0-1.3-.009" transform="translate(4749 115.362)" fill="#005364"/>
    <path id="Path_78" data-name="Path 78" d="M367.115,126.966a.923.923,0,0,0,0-1.306l-.044-.043a.923.923,0,0,0-1.3,1.3l.044.043a.923.923,0,0,0,1.3.009" transform="translate(4749 115.362)" fill="#005364"/>
    <path id="Path_79" data-name="Path 79" d="M299.315,130.737a.923.923,0,0,0,0-1.306l-.044-.043a.923.923,0,0,0-1.3,1.3l.044.043a.923.923,0,0,0,1.3.009" transform="translate(4749 115.362)" fill="#005364"/>
    <path id="Path_80" data-name="Path 80" d="M298.669,133.685a.923.923,0,0,0,0-1.306l-.036-.035a.924.924,0,0,0-1.448,1.147.975.975,0,0,0,.151.15l.043.044a.924.924,0,0,0,1.29,0" transform="translate(4749 115.362)" fill="#005364"/>
    <path id="Path_81" data-name="Path 81" d="M296.6,131.466a.923.923,0,0,0,0-1.306l-.044-.043a.923.923,0,1,0-1.447,1.146.893.893,0,0,0,.15.151l.044.043a.923.923,0,0,0,1.3.009" transform="translate(4749 115.362)" fill="#005364"/>
    <path id="Path_82" data-name="Path 82" d="M299.315,176.26a.923.923,0,0,0,0-1.306l-.044-.043a.923.923,0,0,0-1.3,1.3l.044.043a.923.923,0,0,0,1.3.009" transform="translate(4749 115.362)" fill="#005364"/>
    <path id="Path_83" data-name="Path 83" d="M298.669,179.209a.923.923,0,0,0,0-1.306l-.036-.036a.924.924,0,0,0-1.448,1.147.932.932,0,0,0,.151.15l.043.044a.924.924,0,0,0,1.29,0" transform="translate(4749 115.362)" fill="#005364"/>
    <path id="Path_84" data-name="Path 84" d="M296.6,176.989a.923.923,0,0,0,0-1.306l-.044-.043a.923.923,0,1,0-1.447,1.146.893.893,0,0,0,.15.151l.044.043a.923.923,0,0,0,1.3.009" transform="translate(4749 115.362)" fill="#005364"/>
    <path id="Path_85" data-name="Path 85" d="M306.494,176.346a2.137,2.137,0,1,1,1.768,2.451,2.138,2.138,0,0,1-1.768-2.451" transform="translate(4749 115.362)" fill="#005364"/>
    <path id="Path_86" data-name="Path 86" d="M319.441,165.856a15.321,15.321,0,0,0-21.668,0,2.137,2.137,0,1,0,3.027,3.017,11.05,11.05,0,0,1,15.614,0,2.137,2.137,0,1,0,3.027-3.017" transform="translate(4749 115.362)" fill="#005364"/>
    <path id="Path_87" data-name="Path 87" d="M308.607,167.96a8.728,8.728,0,0,0-6.172,2.557,2.137,2.137,0,0,0,3.022,3.023,4.454,4.454,0,0,1,6.3,0,2.137,2.137,0,1,0,3.021-3.023,8.724,8.724,0,0,0-6.171-2.557" transform="translate(4749 115.362)" fill="#005364"/>
    <path id="Path_88" data-name="Path 88" d="M312.6,117.473a8.24,8.24,0,0,0-11.639.068l-3.433,3.432a3.257,3.257,0,0,0-.786,1.233,3.213,3.213,0,0,0,.772,3.364l11.207,11.209a2.618,2.618,0,0,0,3.7,0l.872-.871a2.616,2.616,0,0,0,0-3.7l-1.931-1.93,1.174-1.174a8.241,8.241,0,0,0,.064-11.631m-1.366,10.341c-.423.423-1.151,1.15-1.819,1.833a.922.922,0,0,0,.006,1.3l2.563,2.563a.779.779,0,0,1,0,1.1l-.871.871a.783.783,0,0,1-1.1,0L298.8,124.273a1.383,1.383,0,0,1-.331-1.458,1.433,1.433,0,0,1,.352-.539l3.432-3.432a6.348,6.348,0,1,1,9.116,8.837c-.046.047-.093.094-.14.14Z" transform="translate(4749 115.362)" fill="#005364"/>
    <path id="Path_89" data-name="Path 89" d="M304.231,120.806l-1.819,1.818a.925.925,0,0,0,0,1.306l.82.82c.992.992,2.416,2.4,2.937,2.919a.922.922,0,0,0,1.3-.008c.669-.669,1.378-1.39,1.8-1.81a3.563,3.563,0,0,0-4.888-5.186c-.051.049-.1.1-.148.15Zm3.739,3.738-1.162,1.163c-.653-.654-1.575-1.574-2.282-2.271l-.169-.169,1.168-1.167a1.73,1.73,0,0,1,2.588,2.3,2.017,2.017,0,0,1-.146.146Z" transform="translate(4749 115.362)" fill="#005364"/>
    <path id="Path_90" data-name="Path 90" d="M274.4,226.771H274.2a7.438,7.438,0,0,1-7.556-5.158h-2.373c-2.5,0-3.739,1.006-3.739,3.017,0,1.883,1.238,2.811,3.739,2.811h2.656v3.585h-2.4c-5.028,0-7.607-2.476-7.607-6.473a6.148,6.148,0,0,1,5.364-6.37,35.54,35.54,0,0,1,3.739-.129,3.843,3.843,0,0,0-4.152-3.429,4.5,4.5,0,0,0-1.573.283v-3.2a8.609,8.609,0,0,1,1.805-.207c4.616,0,7.247,2.837,7.556,7.866.464,2.682,1.908,3.945,4.306,3.945h.439Zm-8.381-.929H262.8v-2.965h3.223Zm19.492.929h-11.63v-3.456h2.372c1.212,0,1.831-.825,1.831-2.475v-5.751h3.636v5.622a7.676,7.676,0,0,1-.438,2.6h4.229Zm-4.075-13.642h-3.223v-2.965h3.223Zm6.239,17.922h-3.2V228.06h3.2Zm9-4.28h-11.6v-3.456h2.372c1.212,0,1.806-.825,1.806-2.475v-5.751h3.636v5.622a7.653,7.653,0,0,1-.413,2.6h4.2Zm-4.151,4.28h-3.2V228.06h3.2Zm21.53-4.28H295.282v-3.456h14.853a5.375,5.375,0,0,0-5.235-4.925h-6.5l5.157-8.226h4.281l-3.249,4.9h1.985c4.926.516,7.479,4.307,7.479,10.367ZM324.76,224.4c0,2.373-.593,4.075-1.805,5.132-1.109,1.006-2.914,1.5-5.389,1.5v-2.914q3.558,0,3.558-3.4v-9.619h3.636Zm11.765,2.373h-3.4c-2.759,0-4.358-1.6-4.358-4.255V210.138h3.61v10.495c0,1.754.439,2.682,3.1,2.682h1.057Zm11.061,0h-11.63v-3.456h2.372c1.212,0,1.831-.825,1.831-2.475v-5.751H343.8v5.622a7.652,7.652,0,0,1-.438,2.6h4.229Zm-4.152,4.28h-3.2V228.06h3.2Zm6.264,0h-3.2V228.06h3.2Zm5.106-9.257a5.17,5.17,0,0,1-1.134,3.4,4.288,4.288,0,0,1-3.533,1.573h-3.069v-3.456h2.3c1.212,0,1.831-.851,1.831-2.527v-5.7h3.61Zm-.232,9.257h-3.223V228.06h3.223Zm7.845-4.28h-3.61V210.138h3.61Z" transform="translate(4749 115.362)" fill="#dda154"/>
  </g>
</svg>
